<svg xmlns="http://www.w3.org/2000/svg" viewBox="0 0 1200 720"><rect width="1200" height="720" fill="#dcedfb"/><rect y="430" width="1200" height="290" fill="#a8cce7"/><path d="M0 365 160 225l90 74 120-166 120 163 130-210 164 225 123-147 183 198 130-94v198H0Z" fill="#8fb6d5"/><path d="m238 299 132-166 120 163 130-210 164 225 123-147 166 180-53 12-119-111-98 116-161-204-151 215-126-137-93 126Z" fill="#f7fbff"/><path d="M0 497c143-47 248-44 358-4 121 44 246 42 371-5 137-52 289-48 471 15v217H0Z" fill="#2b5b73"/><path d="M0 540c165-51 315-29 449 10 160 46 314 46 476-4 101-31 192-25 275-4v178H0Z" fill="#254c42"/><path d="M0 621c129-36 255-29 384 10 160 48 345 48 512-8 93-31 196-24 304 9v88H0Z" fill="#173a30"/><g transform="translate(730 170)" stroke="#0c2338" stroke-width="8" stroke-linejoin="round"><ellipse cx="155" cy="405" rx="194" ry="74" fill="#314756" stroke="none"/><circle cx="164" cy="83" r="64" fill="#edf4f9"/><path d="M124 57c35-34 89-27 111 8l-8 50c-30 27-79 25-107-5Z" fill="#182a39"/><circle cx="205" cy="82" r="17" fill="#1d96ed"/><circle cx="205" cy="82" r="7" fill="#c9f2ff" stroke="none"/><path d="M131 145c40-22 81-19 112 8l28 150-74 52-99-48 5-126Z" fill="#eef4f8"/><path d="m110 181-73 98 43 33 77-77M254 179l78 79-37 40-74-63" fill="none" stroke="#e8f0f5" stroke-width="34" stroke-linecap="round"/><circle cx="77" cy="303" r="21" fill="#1e3446"/><circle cx="300" cy="286" r="21" fill="#1e3446"/><path d="m135 324-80 117 42 30 104-104M226 340l86 99-38 34-104-94" fill="none" stroke="#e9f1f6" stroke-width="40" stroke-linecap="round"/><circle cx="92" cy="460" r="22" fill="#1d3445"/><circle cx="290" cy="458" r="22" fill="#1d3445"/><path d="M143 170h76M149 221h89M157 274h79" stroke="#1788df" stroke-width="5"/><circle cx="112" cy="340" r="18" fill="#152a3d"/><circle cx="234" cy="353" r="18" fill="#152a3d"/></g><g fill="none" stroke="#77a958" stroke-width="9" stroke-linecap="round"><path d="M1090 681c-6-87 14-135 55-176M1112 624l-52-54M1124 588l53-55M1099 652l-58-13M1139 552l-24-61"/></g></svg>